# xmcd
#
# Track frame offsets: 
#        150
#        59762
#        108053
#        134180
#        161631
#        231088
#
# Disc length: 3551 seconds
#
# Revision: 1
# Processed by: cddbd v1.5.2PL0 Copyright (c) Steve Scherf et al.
# Submitted via: ExactAudioCopy v1.0b1
#
DISCID=530ddd06
DTITLE=Johnny Winter - Rockpalast: Blues Rock Legends Vol. 3 [CD 2]
DYEAR=2011
DGENRE=Blues
TTITLE0=Suzie Q
TTITLE1=Drum Solo
TTITLE2=I'm Ready
TTITLE3=Rockabilly Boogie
TTITLE4=Medley
TTITLE5=Jumpin' Jack Flash
EXTD=
EXTT0=
EXTT1=
EXTT2=
EXTT3=
EXTT4=
EXTT5=
PLAYORDER=
